<?xml version="1.0" encoding="UTF-8" standalone="no"?>
<!-- Created with Inkscape (http://www.inkscape.org/) -->

<svg
   xmlns:dc="http://purl.org/dc/elements/1.1/"
   xmlns:cc="http://creativecommons.org/ns#"
   xmlns:rdf="http://www.w3.org/1999/02/22-rdf-syntax-ns#"
   xmlns:svg="http://www.w3.org/2000/svg"
   xmlns="http://www.w3.org/2000/svg"
   xmlns:sodipodi="http://sodipodi.sourceforge.net/DTD/sodipodi-0.dtd"
   xmlns:inkscape="http://www.inkscape.org/namespaces/inkscape"
   version="1.1"
   id="svg2"
   width="222.16586"
   height="226.57303"
   viewBox="0 0 222.16586 226.57303"
   sodipodi:docname="logo-ga-new.svg"
   inkscape:version="0.92.4 5da689c313, 2019-01-14">
  <metadata
     id="metadata8">
    <rdf:RDF>
      <cc:Work
         rdf:about="">
        <dc:format>image/svg+xml</dc:format>
        <dc:type
           rdf:resource="http://purl.org/dc/dcmitype/StillImage" />
      </cc:Work>
    </rdf:RDF>
  </metadata>
  <defs
     id="defs6" />
  <sodipodi:namedview
     pagecolor="#ffffff"
     bordercolor="#666666"
     borderopacity="1"
     objecttolerance="10"
     gridtolerance="10"
     guidetolerance="10"
     inkscape:pageopacity="0"
     inkscape:pageshadow="2"
     inkscape:window-width="1558"
     inkscape:window-height="1052"
     id="namedview4"
     showgrid="false"
     inkscape:zoom="0.98287843"
     inkscape:cx="223.73398"
     inkscape:cy="-65.39736"
     inkscape:window-x="354"
     inkscape:window-y="20"
     inkscape:window-maximized="0"
     inkscape:current-layer="svg2" />
  <path
     style="fill:#113ca0;fill-opacity:1;stroke-width:0.63999999"
     d="m 101.99799,226.17972 c -16.963479,-1.7736 -35.760929,-8.34407 -49.367479,-17.25593 -2.79547,-1.83095 -5.45169,-3.47059 -5.90271,-3.64367 -0.53381,-0.20484 -2.12432,2.33166 -4.55689,7.26716 l -3.73685,7.90184 -34.1503756,-0.22482 c 0,-0.55242 4.517496,-9.89318 9.2694956,-19.83044 4.752,-9.93726 8.64,-18.40999 8.64,-18.82829 0,-0.41829 -1.75754,-3.43262 -3.90565,-6.69849 C -7.3610266,135.87231 -5.9106206,83.931951 21.884901,46.041546 38.865651,22.893669 63.525971,7.2196262 92.059551,1.4387102 c 6.35991,-1.28851901 9.067289,-1.46542401 21.973629,-1.43579601 12.76738,0.02931 15.61141,0.224913 21.44,1.47456901 23.46227,5.030341 44.05122,16.3194208 59.84914,32.8157468 6.0524,6.319961 11.19086,14.243433 11.19086,14.243433 l -8.16803,6.152459 c 0,0 -2.55484,-2.484429 -4.99511,-5.520955 -9.3302,-11.609932 -20.83206,-20.766405 -34.51686,-27.478395 -9.17788,-4.501478 -14.87686,-6.508684 -24.77393,-8.725472 -5.79063,-1.297013 -8.24794,-1.471902 -20.34607,-1.448054 -15.137409,0.02984 -20.186109,0.78068 -32.109109,4.775256 -32.401,10.855331 -57.97537,38.482279 -66.48846,71.82477 -8.5468196,33.474578 1.0179,69.816238 24.93649,94.747568 15.29305,15.94057 32.56346,25.55543 54.46108,30.31981 4.36982,0.95077 8.209879,1.18361 19.519999,1.18361 15.37306,0 19.1578,-0.52412 31.04,-4.29856 12.03645,-3.82343 24.94577,-10.99683 34.67276,-19.26683 2.35001,-1.99801 4.54195,-3.63275 4.87098,-3.63275 0.75158,0 16.15442,32.59548 15.73137,33.28 l -11.36909,0.045 c 0,0 -0.12916,0.30294 -4.5353,-8.84496 -1.73782,-3.608 -3.37724,-6.56 -3.64317,-6.56 -0.26592,0 -2.88456,1.56509 -5.81919,3.47797 -11.96064,7.79635 -27.71742,13.95914 -41.92135,16.3963 -8.74177,1.49993 -23.00704,2.05853 -31.0622,1.21633 z m 108.49402,-5.7306 c -0.36185,-0.44 -10.06617,-21.328 -21.56517,-45.44 -11.49899,-24.112 -21.3262,-44.49008 -21.83824,-45.28463 l -0.93099,-1.44462 -41.74222,0.16462 -41.742209,0.16463 -1.81684,3.39031 c -0.99926,1.86468 -1.6563,3.80868 -1.46009,4.32 0.30676,0.79939 6.04432,0.92969 40.938479,0.92969 31.69291,0 40.72374,0.17523 41.2301,0.8 1.12809,1.39189 18.70835,38.7239 18.70835,39.72753 0,1.41484 -7.80684,8.32338 -14.36589,12.71287 -10.5617,7.06815 -20.8263,11.41866 -33.19353,14.0686 -7.999,1.71397 -26.53805,2.04432 -34.360579,0.61229 -12.42228,-2.27409 -26.06202,-7.7928 -36.8,-14.88949 -6.96284,-4.60172 -20.18529,-17.88546 -24.87295,-24.98825 -21.46396,-32.52237 -21.45072,-72.231148 0.0349,-104.777698 5.0951,-7.718087 17.29994,-19.77964 25.51381,-25.214276 10.51732,-6.958691 20.76546,-11.206832 33.81764,-14.01835 9.307499,-2.004894 26.689059,-1.999586 36.027179,0.011 21.53132,4.635908 41.04845,16.463872 54.34845,32.936793 2.25003,2.786809 4.09096,5.310291 4.09096,5.607731 l -9.02766,6.379398 c -5.42148,-7.360332 -19.68406,-20.88063 -28.73233,-25.827228 -7.2346,-3.955085 -18.56,-7.916473 -18.56,-6.491902 0,0.18096 19.87601,41.961966 44.16892,92.846682 24.2929,50.88472 44.00391,93.37798 43.80223,93.7043 z m -78.66112,-26.80916 c 6.8748,-1.59936 16.86524,-5.54006 22.73267,-8.96681 5.79933,-3.387 12.26962,-8.29478 12.26962,-9.30663 0,-1.22111 -12.15455,-26.19638 -13.01534,-26.74403 -0.40956,-0.26058 -18.6374,-0.47818 -40.5063,-0.48357 -31.038419,-0.008 -39.907219,0.16571 -40.425259,0.7902 -1.37798,1.66116 -12.82866,26.24637 -12.55067,26.94696 0.45254,1.14045 9.01638,7.06095 14.33757,9.91209 8.43687,4.52054 16.88927,7.3179 28.159999,9.31969 0.88,0.15629 6.496,0.18506 12.48,0.0639 8.07533,-0.16348 12.33331,-0.55835 16.51771,-1.53183 z M 66.284891,90.183372 c 14.46956,-30.286173 26.30829,-55.414173 26.30829,-55.840007 0,-1.144621 -1.32614,-0.960229 -6.52186,0.906821 -24.44276,8.783372 -43.63107,28.692344 -51.34376,53.272096 -2.94841,9.39634 -3.75266,15.879948 -3.3848,27.286838 0.34387,10.66311 1.77555,18.32748 4.95902,26.5477 1.78441,4.60767 1.90275,4.76304 2.85884,3.75371 0.44878,-0.47377 12.65471,-25.641 27.12427,-55.927158 z m 72.100389,26.412888 c 0.33895,-0.8833 -22.91526,-50.118325 -24.38502,-51.629224 -0.7744,-0.796084 -1.23996,-0.183872 -3.40687,4.48 -1.38045,2.971148 -6.85922,14.455059 -12.175059,25.519806 -5.31583,11.064738 -9.66515,20.640738 -9.66515,21.279998 0,1.10293 1.25922,1.16228 24.660079,1.16228 19.34587,0 24.72731,-0.17517 24.97202,-0.81286 z"
     id="path4520"
     inkscape:connector-curvature="0"
     sodipodi:nodetypes="scccccsscsssssccssssssscsscscccsccscsccccccsssccssssssssccsssccccsccccsccccssssscsscccsssc" />
</svg>
