<?xml version="1.0" encoding="UTF-8" standalone="no"?>
<!-- Created with Inkscape (http://www.inkscape.org/) -->

<svg
   xmlns:dc="http://purl.org/dc/elements/1.1/"
   xmlns:cc="http://creativecommons.org/ns#"
   xmlns:rdf="http://www.w3.org/1999/02/22-rdf-syntax-ns#"
   xmlns:svg="http://www.w3.org/2000/svg"
   xmlns="http://www.w3.org/2000/svg"
   xmlns:sodipodi="http://sodipodi.sourceforge.net/DTD/sodipodi-0.dtd"
   xmlns:inkscape="http://www.inkscape.org/namespaces/inkscape"
   width="267"
   height="300"
   viewBox="0 0 70.643748 79.375002"
   version="1.1"
   id="svg8"
   sodipodi:docname="galogo.svg"
   inkscape:version="0.92.1 r">
  <defs
     id="defs2" />
  <sodipodi:namedview
     id="base"
     pagecolor="#ffffff"
     bordercolor="#666666"
     borderopacity="1.0"
     inkscape:pageopacity="0.0"
     inkscape:pageshadow="2"
     inkscape:zoom="1.979899"
     inkscape:cx="49.194448"
     inkscape:cy="102.83353"
     inkscape:document-units="mm"
     inkscape:current-layer="layer1"
     showgrid="false"
     units="px"
     inkscape:window-width="1354"
     inkscape:window-height="740"
     inkscape:window-x="4"
     inkscape:window-y="20"
     inkscape:window-maximized="1"
     inkscape:object-paths="false"
     inkscape:snap-intersection-paths="true" />
  <metadata
     id="metadata5">
    <rdf:RDF>
      <cc:Work
         rdf:about="">
        <dc:format>image/svg+xml</dc:format>
        <dc:type
           rdf:resource="http://purl.org/dc/dcmitype/StillImage" />
        <dc:title></dc:title>
      </cc:Work>
    </rdf:RDF>
  </metadata>
  <g
     inkscape:label="Layer 1"
     inkscape:groupmode="layer"
     id="layer1"
     transform="translate(0,-217.62498)">
    <path
       inkscape:connector-curvature="0"
       id="path3875"
       d="M -3.850332e-6,257.31251 V 217.62503 H 35.321851 70.643703 v 39.68748 39.68747 H 35.321851 -3.850332e-6 Z"
       style="fill:#fcfcfc;stroke-width:0.26458317" />
    <path
       inkscape:connector-curvature="0"
       id="path3873"
       d="m 32.321165,296.58313 c -2.577144,-0.3754 -6.693017,-1.4104 -8.332036,-2.09521 -1.741945,-0.66852 -1.575826,-0.59132 -1.679493,0.33594 -0.1975,0.98692 -0.665089,1.11779 -5.641586,1.11779 -3.062435,0 -3.970935,-0.0815 -4.217372,-0.37848 -0.217813,-0.26246 -0.295271,-1.58042 -0.252667,-4.29948 l 0.06146,-3.921 -2.146957,-2.85049 c -3.8010605,-5.04656 -6.3298714,-9.6946 -8.0056828,-14.71458 -4.1005661,-12.28357 -2.03832159,-25.4294 5.5944964,-35.66214 3.3474144,-4.48764 8.6115364,-9.09481 13.2007834,-11.55337 2.641248,-1.41498 7.615641,-3.45166 9.746056,-3.99039 3.942477,-0.99692 11.249305,-1.23506 16.978468,-0.55336 7.78537,0.9264 15.528345,3.96171 19.808654,7.76519 l 1.388916,1.23418 -0.316104,6.08542 c -0.173958,3.34697 -0.419812,6.19901 -0.546541,6.33787 -0.140625,0.15416 -0.667791,-0.16875 -1.353812,-0.82938 -1.801061,-1.73441 -5.418892,-4.54716 -8.157765,-6.34239 -2.604145,-1.70692 -7.028267,-3.97706 -7.273225,-3.7321 -0.07563,0.0756 0.619708,1.31241 1.54502,2.74856 4.172081,6.47529 7.904078,13.98178 10.243077,20.60284 1.097228,3.10594 2.651811,8.76322 2.651811,9.65024 0,0.38311 0.352416,2.23804 0.783145,4.12211 1.039583,4.5472 1.978499,9.70851 2.778061,15.27136 0.632895,4.40321 1.465874,12.33308 1.465874,13.95495 v 0.78985 h -4.889747 c -5.58658,0 -5.038122,0.28486 -5.23933,-2.72129 -0.05646,-0.84187 -0.211375,-1.63647 -0.3445,-1.76581 -0.142708,-0.13854 -0.997687,0.20948 -2.082853,0.84798 -2.189665,1.28838 -5.92585,2.84877 -8.654036,3.61429 -4.626351,1.29817 -11.88118,1.69281 -17.112072,0.9309 z m 11.843472,-10.87485 c 2.736373,-0.54365 6.597683,-1.96942 8.897786,-3.28544 3.053185,-1.74689 5.528225,-3.70843 5.635058,-4.46591 0.135,-0.95763 -0.773437,-6.30862 -1.119665,-6.59489 -0.17125,-0.14167 -7.012475,-0.27644 -16.262803,-0.32056 -13.727116,-0.0654 -15.996823,-0.0225 -16.178177,0.30731 -0.19375,0.352 -1.323791,6.65381 -1.712186,9.54722 -0.210042,1.56469 -0.01458,1.7595 2.952727,2.94281 5.966705,2.37946 12.018784,3.01554 17.78726,1.86946 z M 14.93801,271.26927 c 3.205581,-13.73185 9.053306,-27.56992 17.03553,-40.313 1.174604,-1.87514 2.366498,-3.4758 2.21554,-3.52814 -0.435438,-0.15104 -3.61908,0.73912 -5.954308,1.73862 -8.519224,3.6464 -14.837595,10.65262 -17.627718,19.5468 -1.2179784,3.88265 -1.5149366,6.74198 -1.1453327,11.02837 0.3192498,3.70225 0.9650617,6.30054 2.3884357,9.60912 1.408708,3.27452 2.234141,4.90955 2.350412,4.90955 0.06229,0 0.355274,-1.35422 0.737441,-2.99132 z m 39.56612,-10.7786 c 0,-1.179 -2.730373,-8.27945 -4.989288,-12.97487 -2.374853,-4.93639 -7.208704,-13.22203 -7.713746,-13.22203 -0.949666,0 -5.890142,7.55347 -8.739244,13.36145 -2.162769,4.40881 -5.016038,11.46193 -5.016038,12.39933 0,0.57091 0.615749,0.59885 14.353636,0.65131 7.826912,0.03 12.10468,-0.0462 12.10468,-0.21519 z"
       style="fill:#dcdcdb;stroke-width:0.26458317"
       sodipodi:nodetypes="cccsccccccccccccccsccssccscscccccccccccccccsccccccssscscscs" />
    <path
       inkscape:connector-curvature="0"
       id="path3871"
       d="m 12.393996,295.46339 c -0.322841,-0.37115 -0.267237,-7.65285 0.01776,-10.55831 0.685437,-6.9872 2.964028,-16.57326 5.780901,-25.02019 4.330518,-12.98585 11.595625,-27.1123 20.330792,-38.51589 l 3.359332,-3.78634 c 0.539849,-0.517 0.678961,-0.69589 1.326493,0.0424 0.01635,0.0186 0.03316,0.0379 0.05044,0.0577 9.798577,11.44439 17.091467,25.30917 20.832861,37.73072 0.524708,1.74206 1.087576,3.67127 1.173368,4.29729 l 0.177242,0.7708 -5.221047,-0.0342 -5.718011,0.0433 -0.799328,-2.86676 c -1.461436,-4.40472 -2.381389,-6.59488 -4.729158,-11.20325 -2.006582,-3.9387 -5.729566,-10.41992 -6.664378,-11.51855 l -0.543235,-0.64594 -1.178538,1.33208 c -4.523891,5.20784 -10.502787,16.9939 -12.926473,25.92225 -3.45206,12.71667 -4.179419,16.61417 -5.112981,30.66143 -0.09667,1.45521 -0.238441,3.01928 -0.375129,3.21299 -0.388429,0.83157 -9.84631,0.96116 -9.780914,0.0785 z"
       style="fill:#28166e;stroke-width:0.26458317"
       sodipodi:nodetypes="ccsccscccccccccccscccc" />
  </g>
</svg>
